<mxfile host="Electron" agent="Mozilla/5.0 (X11; Linux x86_64) AppleWebKit/537.36 (KHTML, like Gecko) draw.io/26.1.1 Chrome/132.0.6834.210 Electron/34.3.3 Safari/537.36" version="26.1.1">
  <diagram name="Page-1" id="QWus57eGXIuECSsaH0sc">
    <mxGraphModel dx="819" dy="477" grid="1" gridSize="10" guides="1" tooltips="1" connect="1" arrows="1" fold="1" page="1" pageScale="1" pageWidth="827" pageHeight="1169" math="0" shadow="0">
      <root>
        <mxCell id="0" />
        <mxCell id="1" parent="0" />
        <mxCell id="H_e7huOgCHwXM-tOPCUI-1" value="" style="ellipse;html=1;shape=startState;fillColor=#000000;strokeColor=#ff0000;" vertex="1" parent="1">
          <mxGeometry x="175" y="20" width="30" height="30" as="geometry" />
        </mxCell>
        <mxCell id="H_e7huOgCHwXM-tOPCUI-2" value="" style="edgeStyle=orthogonalEdgeStyle;html=1;verticalAlign=bottom;endArrow=open;endSize=8;strokeColor=#ff0000;rounded=0;entryX=0.5;entryY=0;entryDx=0;entryDy=0;" edge="1" source="H_e7huOgCHwXM-tOPCUI-1" parent="1" target="H_e7huOgCHwXM-tOPCUI-4">
          <mxGeometry relative="1" as="geometry">
            <mxPoint x="190" y="110" as="targetPoint" />
          </mxGeometry>
        </mxCell>
        <mxCell id="H_e7huOgCHwXM-tOPCUI-3" value="Deschidere&amp;nbsp;&lt;div&gt;aplicație&lt;/div&gt;" style="edgeLabel;html=1;align=center;verticalAlign=middle;resizable=0;points=[];" vertex="1" connectable="0" parent="H_e7huOgCHwXM-tOPCUI-2">
          <mxGeometry x="-0.0615" y="1" relative="1" as="geometry">
            <mxPoint as="offset" />
          </mxGeometry>
        </mxCell>
        <mxCell id="H_e7huOgCHwXM-tOPCUI-7" value="scriere caractere" style="edgeStyle=orthogonalEdgeStyle;rounded=0;orthogonalLoop=1;jettySize=auto;html=1;exitX=1;exitY=0.75;exitDx=0;exitDy=0;entryX=0;entryY=0.75;entryDx=0;entryDy=0;" edge="1" parent="1" source="H_e7huOgCHwXM-tOPCUI-4" target="H_e7huOgCHwXM-tOPCUI-5">
          <mxGeometry relative="1" as="geometry" />
        </mxCell>
        <mxCell id="H_e7huOgCHwXM-tOPCUI-15" style="edgeStyle=orthogonalEdgeStyle;rounded=0;orthogonalLoop=1;jettySize=auto;html=1;exitX=0.75;exitY=0;exitDx=0;exitDy=0;entryX=0;entryY=0.5;entryDx=0;entryDy=0;" edge="1" parent="1" source="H_e7huOgCHwXM-tOPCUI-4" target="H_e7huOgCHwXM-tOPCUI-14">
          <mxGeometry relative="1" as="geometry" />
        </mxCell>
        <mxCell id="H_e7huOgCHwXM-tOPCUI-4" value="Inactiv&lt;div&gt;(În așteptare)&lt;/div&gt;" style="rounded=1;whiteSpace=wrap;html=1;" vertex="1" parent="1">
          <mxGeometry x="130" y="120" width="120" height="60" as="geometry" />
        </mxCell>
        <mxCell id="H_e7huOgCHwXM-tOPCUI-8" value="repoziționare cursor" style="edgeStyle=orthogonalEdgeStyle;rounded=0;orthogonalLoop=1;jettySize=auto;html=1;exitX=0;exitY=0.5;exitDx=0;exitDy=0;entryX=1;entryY=0.5;entryDx=0;entryDy=0;" edge="1" parent="1" source="H_e7huOgCHwXM-tOPCUI-5" target="H_e7huOgCHwXM-tOPCUI-4">
          <mxGeometry relative="1" as="geometry" />
        </mxCell>
        <mxCell id="H_e7huOgCHwXM-tOPCUI-9" value="timer declanșat" style="edgeStyle=orthogonalEdgeStyle;rounded=0;orthogonalLoop=1;jettySize=auto;html=1;exitX=0;exitY=0.25;exitDx=0;exitDy=0;entryX=1;entryY=0.25;entryDx=0;entryDy=0;" edge="1" parent="1" source="H_e7huOgCHwXM-tOPCUI-5" target="H_e7huOgCHwXM-tOPCUI-4">
          <mxGeometry relative="1" as="geometry" />
        </mxCell>
        <mxCell id="H_e7huOgCHwXM-tOPCUI-11" value="ștergere&amp;nbsp;&lt;div&gt;caractere&lt;/div&gt;" style="edgeStyle=orthogonalEdgeStyle;rounded=0;orthogonalLoop=1;jettySize=auto;html=1;exitX=0.25;exitY=1;exitDx=0;exitDy=0;entryX=0.25;entryY=0;entryDx=0;entryDy=0;" edge="1" parent="1" source="H_e7huOgCHwXM-tOPCUI-5" target="H_e7huOgCHwXM-tOPCUI-6">
          <mxGeometry relative="1" as="geometry" />
        </mxCell>
        <mxCell id="H_e7huOgCHwXM-tOPCUI-16" style="edgeStyle=orthogonalEdgeStyle;rounded=0;orthogonalLoop=1;jettySize=auto;html=1;exitX=0.5;exitY=0;exitDx=0;exitDy=0;entryX=0.5;entryY=1;entryDx=0;entryDy=0;" edge="1" parent="1" source="H_e7huOgCHwXM-tOPCUI-5" target="H_e7huOgCHwXM-tOPCUI-14">
          <mxGeometry relative="1" as="geometry" />
        </mxCell>
        <mxCell id="H_e7huOgCHwXM-tOPCUI-5" value="Adăugare text" style="rounded=1;whiteSpace=wrap;html=1;" vertex="1" parent="1">
          <mxGeometry x="430" y="120" width="120" height="60" as="geometry" />
        </mxCell>
        <mxCell id="H_e7huOgCHwXM-tOPCUI-10" value="timer declanșat" style="edgeStyle=orthogonalEdgeStyle;rounded=0;orthogonalLoop=1;jettySize=auto;html=1;exitX=0;exitY=0.75;exitDx=0;exitDy=0;entryX=0.25;entryY=1;entryDx=0;entryDy=0;" edge="1" parent="1" source="H_e7huOgCHwXM-tOPCUI-6" target="H_e7huOgCHwXM-tOPCUI-4">
          <mxGeometry x="-0.5324" relative="1" as="geometry">
            <mxPoint as="offset" />
          </mxGeometry>
        </mxCell>
        <mxCell id="H_e7huOgCHwXM-tOPCUI-12" value="scriere&amp;nbsp;&lt;div&gt;caractere&lt;/div&gt;" style="edgeStyle=orthogonalEdgeStyle;rounded=0;orthogonalLoop=1;jettySize=auto;html=1;exitX=0.75;exitY=0;exitDx=0;exitDy=0;entryX=0.75;entryY=1;entryDx=0;entryDy=0;" edge="1" parent="1" source="H_e7huOgCHwXM-tOPCUI-6" target="H_e7huOgCHwXM-tOPCUI-5">
          <mxGeometry relative="1" as="geometry" />
        </mxCell>
        <mxCell id="H_e7huOgCHwXM-tOPCUI-13" value="repoziționare cursor" style="edgeStyle=orthogonalEdgeStyle;rounded=0;orthogonalLoop=1;jettySize=auto;html=1;exitX=0;exitY=0.25;exitDx=0;exitDy=0;entryX=0.75;entryY=1;entryDx=0;entryDy=0;" edge="1" parent="1" source="H_e7huOgCHwXM-tOPCUI-6" target="H_e7huOgCHwXM-tOPCUI-4">
          <mxGeometry x="-0.3898" relative="1" as="geometry">
            <mxPoint as="offset" />
          </mxGeometry>
        </mxCell>
        <mxCell id="H_e7huOgCHwXM-tOPCUI-17" style="edgeStyle=orthogonalEdgeStyle;rounded=0;orthogonalLoop=1;jettySize=auto;html=1;entryX=1;entryY=0.5;entryDx=0;entryDy=0;" edge="1" parent="1" source="H_e7huOgCHwXM-tOPCUI-6" target="H_e7huOgCHwXM-tOPCUI-14">
          <mxGeometry relative="1" as="geometry">
            <Array as="points">
              <mxPoint x="620" y="280" />
              <mxPoint x="620" y="45" />
            </Array>
          </mxGeometry>
        </mxCell>
        <mxCell id="H_e7huOgCHwXM-tOPCUI-6" value="Ștergere text" style="rounded=1;whiteSpace=wrap;html=1;" vertex="1" parent="1">
          <mxGeometry x="430" y="250" width="120" height="60" as="geometry" />
        </mxCell>
        <mxCell id="H_e7huOgCHwXM-tOPCUI-14" value="" style="ellipse;html=1;shape=endState;fillColor=#000000;strokeColor=#ff0000;" vertex="1" parent="1">
          <mxGeometry x="475" y="30" width="30" height="30" as="geometry" />
        </mxCell>
      </root>
    </mxGraphModel>
  </diagram>
</mxfile>
